<svg xmlns="http://www.w3.org/2000/svg" width="38" height="38" viewBox="0 0 38 38">
    <defs>
        <style>.a{fill:#e00;}</style>
    </defs>
    <path d="M28,2.25A7.7587,7.7587,0,0,1,35.75,10V28A7.7587,7.7587,0,0,1,28,35.75H10A7.7587,7.7587,0,0,1,2.25,28V10A7.7587,7.7587,0,0,1,10,2.25H28M28,1H10a9,9,0,0,0-9,9V28a9,9,0,0,0,9,9H28a9,9,0,0,0,9-9V10a9,9,0,0,0-9-9Z"/>
    <path d="M27,15.9131H16.8178l.7789-.7783a.6256.6256,0,1,0-.8848-.8848l-1.8467,1.8467a.6259.6259,0,0,0,.001.8847l1.8467,1.8457a.6249.6249,0,1,0,.8828-.8847l-.78-.7793H26.375V26.375H17.1631V24.89a.625.625,0,0,0-1.25,0V27a.6256.6256,0,0,0,.625.625H27A.6256.6256,0,0,0,27.625,27V16.5381A.6256.6256,0,0,0,27,15.9131Z"/>
    <path class="a" d="M23.1338,21.0186l-1.8467-1.8457a.6249.6249,0,1,0-.8828.8847l.78.7793H11.625V11.625h9.2119V13.11a.625.625,0,0,0,1.25,0V11a.6256.6256,0,0,0-.625-.625H11a.6256.6256,0,0,0-.625.625V21.4619a.6256.6256,0,0,0,.625.625H21.1822l-.7789.7783a.6256.6256,0,0,0,.8848.8848l1.8467-1.8467a.6259.6259,0,0,0-.001-.8847Z"/>
</svg>