<?xml version="1.0" standalone="no"?>
<!DOCTYPE svg PUBLIC "-//W3C//DTD SVG 20010904//EN"
 "http://www.w3.org/TR/2001/REC-SVG-20010904/DTD/svg10.dtd">
<svg version="1.0" xmlns="http://www.w3.org/2000/svg"
 width="1000.000000pt" height="1000.000000pt" viewBox="0 0 1000.000000 1000.000000"
 preserveAspectRatio="xMidYMid meet">

<g transform="translate(0.000000,1000.000000) scale(0.100000,-0.100000)"
fill="#000000" stroke="none">
<path d="M4615 9980 c-1393 -121 -2609 -758 -3487 -1826 -607 -739 -975 -1623
-1095 -2629 -25 -215 -25 -835 0 -1050 109 -910 416 -1710 925 -2409 866
-1187 2177 -1923 3647 -2047 180 -15 610 -15 790 0 1012 85 1952 459 2733
1087 1072 861 1736 2115 1853 3499 15 180 15 610 0 790 -142 1685 -1092 3157
-2566 3976 -566 315 -1193 513 -1880 594 -162 20 -757 29 -920 15z m2773
-3811 c639 -642 1162 -1170 1162 -1175 0 -11 -2322 -2334 -2332 -2334 -5 0 -8
115 -8 255 l0 255 -394 0 c-277 0 -397 3 -402 11 -3 6 -3 830 1 1830 l8 1819
393 0 394 0 0 256 c0 141 4 254 8 252 5 -1 531 -528 1170 -1169z m-5158 -189
l0 -850 -140 0 -140 0 0 850 0 850 140 0 140 0 0 -850z m859 831 c122 -38 214
-119 274 -240 l32 -66 0 -525 0 -525 -32 -68 c-44 -93 -119 -169 -211 -214
-66 -33 -85 -38 -167 -41 -146 -7 -248 31 -344 128 -59 60 -98 132 -116 217
-18 86 -21 894 -4 989 30 163 160 306 318 350 70 19 180 17 250 -5z m881 -831
l0 -850 -145 0 -145 0 0 850 0 850 145 0 145 0 0 -850z m580 0 l0 -850 -140 0
-140 0 0 850 0 850 140 0 140 0 0 -850z m590 0 l0 -850 -145 0 -145 0 0 850 0
850 145 0 145 0 0 -850z m-1740 -1950 l0 -850 -140 0 -140 0 0 850 0 850 140
0 140 0 0 -850z m1740 0 l0 -850 -145 0 -145 0 0 850 0 850 145 0 145 0 0
-850z m-2669 810 c183 -35 329 -184 359 -366 6 -33 10 -248 10 -479 0 -231 -4
-446 -10 -479 -30 -184 -177 -332 -365 -367 -212 -39 -432 95 -497 303 -16 55
-18 101 -18 543 0 442 2 488 18 543 67 212 285 343 503 302z m1758 -5 c164
-39 296 -172 331 -335 8 -39 11 -195 8 -540 l-3 -485 -32 -68 c-86 -182 -281
-290 -468 -259 -137 23 -264 109 -323 220 -60 113 -62 131 -62 624 0 291 4
466 11 500 18 84 59 158 124 223 115 115 258 156 414 120z"/>
<path d="M2880 6518 c-18 -13 -43 -36 -54 -51 -20 -28 -21 -40 -24 -474 -3
-435 -2 -446 18 -489 27 -54 75 -86 134 -86 85 -2 150 61 161 155 4 29 5 232
3 452 -3 382 -4 402 -24 435 -46 78 -145 105 -214 58z"/>
<path d="M2324 4541 c-25 -12 -50 -33 -65 -57 l-24 -39 0 -451 0 -450 27 -41
c68 -103 218 -91 269 21 17 38 19 73 19 471 0 427 0 431 -22 475 -26 50 -84
90 -133 90 -16 0 -48 -9 -71 -19z"/>
<path d="M4065 4546 c-41 -18 -83 -69 -90 -109 -3 -18 -5 -229 -3 -469 3 -423
4 -437 24 -464 53 -72 128 -91 203 -52 84 44 82 28 79 555 l-3 462 -30 32
c-53 56 -118 72 -180 45z"/>
</g>
</svg>
