<?xml version="1.0" standalone="no"?>
<!DOCTYPE svg PUBLIC "-//W3C//DTD SVG 20010904//EN"
 "http://www.w3.org/TR/2001/REC-SVG-20010904/DTD/svg10.dtd">
<svg version="1.0" xmlns="http://www.w3.org/2000/svg"
 width="1024" height="1024" viewBox="0 0 1024 1024"
 preserveAspectRatio="xMidYMid meet">

<g transform="translate(0.000000,380.000000) scale(0.100000,-0.100000)"
fill="#000000" stroke="none">
<path d="M810 3681 c-175 -38 -318 -117 -450 -251 -134 -135 -221 -304 -249
-480 -7 -42 -11 -416 -11 -1055 0 -928 1 -996 19 -1080 36 -176 115 -320 246
-450 130 -131 274 -210 450 -246 84 -18 152 -19 1085 -19 933 0 1001 1 1085
19 176 36 320 115 450 246 131 130 210 274 246 450 18 84 19 152 19 1085 0
933 -1 1001 -19 1085 -37 179 -116 321 -251 455 -135 134 -304 221 -480 249
-42 7 -415 11 -1060 10 -920 0 -1001 -2 -1080 -18z m2225 -144 c246 -86 416
-256 502 -502 l28 -80 0 -1055 0 -1055 -28 -80 c-86 -246 -256 -416 -502 -502
l-80 -28 -1055 0 -1055 0 -80 28 c-246 86 -416 256 -502 502 l-28 80 -3 1015
c-2 709 0 1034 8 1079 43 248 225 474 463 574 137 57 103 56 1222 54 l1030 -2
80 -28z"/>
<path d="M1057 2742 c-15 -17 -17 -71 -17 -565 0 -534 0 -547 20 -567 19 -19
33 -20 537 -20 l517 0 -44 -45 c-33 -33 -43 -52 -43 -76 0 -36 24 -59 62 -59
35 0 241 205 241 241 0 31 -215 249 -246 249 -28 0 -52 -20 -59 -52 -6 -23 1
-35 40 -77 l48 -51 -477 0 -476 0 0 460 0 460 459 0 459 0 4 -91 c5 -100 16
-119 69 -119 49 0 59 29 59 167 0 110 -2 125 -20 143 -20 20 -33 20 -568 20
-519 0 -550 -1 -565 -18z" fill="red"/>
<path d="M1577 2282 c-140 -141 -140 -133 1 -274 116 -116 142 -128 182 -88
31 31 24 56 -26 110 l-47 50 477 0 476 0 0 -460 0 -460 -460 0 -460 0 0 83 c0
100 -14 127 -65 127 -55 0 -65 -24 -65 -165 0 -93 4 -126 16 -143 l15 -22 553
0 c523 0 554 1 569 18 15 17 17 71 17 570 l0 551 -22 15 c-20 14 -87 16 -537
16 l-514 0 47 50 c25 27 46 57 46 67 0 34 -29 63 -63 63 -28 0 -48 -15 -140
-108z"/>
</g>
</svg>
